<?xml version="1.0" standalone="no"?>
<!DOCTYPE svg PUBLIC "-//W3C//DTD SVG 20010904//EN"
 "http://www.w3.org/TR/2001/REC-SVG-20010904/DTD/svg10.dtd">
<svg version="1.0" xmlns="http://www.w3.org/2000/svg"
 width="426.000000pt" height="426.000000pt" viewBox="0 0 426.000000 426.000000"
 preserveAspectRatio="xMidYMid meet">
<metadata>
Created by potrace 1.11, written by Peter Selinger 2001-2013
</metadata>
<g transform="translate(0.000000,426.000000) scale(0.100000,-0.100000)"
fill="#000000" stroke="none">
<path d="M2007 4243 c-3 -2 -31 -6 -63 -8 -120 -9 -178 -18 -316 -51 -10 -2
-26 -6 -35 -8 -10 -2 -31 -7 -48 -11 -167 -40 -630 -270 -668 -332 -4 -7 -12
-13 -17 -13 -6 0 -18 -8 -29 -17 -10 -10 -45 -40 -77 -68 -100 -86 -248 -240
-295 -307 -13 -18 -26 -35 -29 -38 -15 -14 -60 -80 -60 -88 0 -6 -4 -12 -9
-14 -18 -6 -141 -228 -141 -254 0 -8 -4 -14 -10 -14 -5 0 -10 -7 -10 -16 0 -9
-6 -28 -14 -42 -14 -26 -25 -56 -26 -67 0 -3 -6 -18 -14 -33 -24 -46 -65 -177
-71 -229 -2 -12 -6 -26 -9 -31 -3 -5 -8 -24 -11 -43 -3 -19 -10 -56 -15 -84
-46 -251 -36 -564 25 -820 31 -128 43 -173 55 -196 8 -13 13 -25 12 -27 -1 -1
5 -18 13 -38 8 -20 15 -39 15 -42 0 -13 95 -218 105 -224 5 -4 7 -8 3 -8 -4 0
8 -25 27 -55 19 -30 35 -59 35 -65 0 -5 4 -10 9 -10 5 0 12 -8 16 -19 3 -10
13 -28 23 -39 9 -11 24 -30 32 -42 14 -21 52 -70 75 -97 91 -105 118 -135 165
-183 90 -92 331 -278 353 -272 4 1 7 -2 7 -7 0 -5 9 -13 20 -16 11 -3 26 -12
32 -18 18 -17 161 -90 233 -120 95 -38 100 -40 105 -42 3 -1 39 -12 80 -24 41
-12 86 -27 100 -32 14 -5 36 -11 50 -13 14 -3 25 -5 25 -6 0 -1 9 -3 20 -5
108 -20 145 -26 175 -30 49 -7 226 -19 280 -19 62 0 266 13 282 19 7 2 31 6
53 9 39 5 60 9 117 22 15 3 29 4 30 3 2 -1 12 3 24 9 11 6 32 13 45 16 13 3
37 8 52 11 82 17 409 157 444 191 6 6 25 17 42 24 17 7 31 16 31 21 0 5 6 9
13 9 12 0 183 125 245 180 17 15 32 27 32 25 0 -4 136 132 173 173 15 16 27
35 27 40 0 5 7 12 15 16 8 3 15 10 15 15 0 5 13 22 28 39 27 29 152 208 152
218 0 3 16 29 35 59 19 30 33 55 31 55 -3 0 7 21 21 47 20 39 52 117 104 253
5 14 11 35 14 48 2 12 14 57 25 100 26 93 29 104 36 161 3 25 7 48 9 52 22 34
23 494 2 594 -3 11 -8 42 -11 68 -9 61 -14 84 -21 107 -3 10 -7 27 -9 37 -15
75 -52 192 -89 283 -6 14 -11 27 -12 30 -2 7 -28 64 -59 130 -25 54 -34 69
-110 192 -163 262 -447 538 -712 690 -93 53 -196 103 -206 100 -5 -1 -8 3 -8
10 0 6 -3 8 -6 5 -4 -4 -19 0 -33 7 -76 41 -297 112 -376 122 -11 1 -20 3 -20
4 0 2 -13 5 -60 13 -16 3 -41 8 -55 11 -83 15 -422 30 -433 19z"/>
</g>
</svg>
